<svg width="57" height="54" viewBox="0 0 57 54" fill="none" xmlns="http://www.w3.org/2000/svg">
<path d="M30.951 20.5996L37.9654 27.076L37.9201 27.0983L37.8742 27.121L37.8276 27.1438L37.7816 27.1668L37.735 27.19L37.6884 27.2134L37.6412 27.2369L37.5946 27.2607L37.5474 27.2846L37.5002 27.3088L37.453 27.3332L37.4058 27.3576L37.3586 27.3823L37.3107 27.4072L37.2629 27.4323L37.2156 27.4575L37.1678 27.4828L37.12 27.5084L37.0721 27.534L37.0243 27.56L36.9764 27.586L36.9286 27.6122L36.8814 27.6385L36.8335 27.6651L36.7857 27.6918L36.7378 27.7185L36.69 27.7455L36.6421 27.7726L36.5949 27.7998L36.5471 27.8273L36.4998 27.8548V27.8548L36.4526 27.8824L36.4054 27.9102L36.3582 27.9382L36.311 27.9663L36.2644 27.9945L36.2172 28.0228L36.1706 28.0513L36.124 28.0798L36.0774 28.1085L36.0315 28.1374L35.9855 28.1663L35.9395 28.1953V28.1953L35.8942 28.2244L35.8489 28.2537L35.8036 28.2831L35.7582 28.3126L35.7135 28.3422L35.6688 28.3718V28.3719L35.6248 28.4016V28.4016L35.5807 28.4315L35.5373 28.4614V28.4615L35.4938 28.4915L35.4504 28.5216V28.5217L35.4076 28.5519V28.5519L35.3648 28.5821V28.5822L35.3226 28.6126V28.6127L35.2804 28.6431L35.2389 28.6737L35.1979 28.7043L35.157 28.735V28.7351L35.1161 28.7657V28.7659L35.0758 28.7966V28.7967L35.0361 28.8276L24.2456 19.173C24.1191 19.0671 23.9951 18.9564 23.8748 18.8408C23.1458 18.1429 22.5874 17.3222 22.2096 16.4442C21.8313 15.5658 21.6317 14.6302 21.6103 13.6914C21.5889 12.7518 21.7469 11.8075 22.0856 10.9124C22.7869 9.05975 24.2192 7.55923 26.0354 6.77389C26.9118 6.39491 27.8454 6.19479 28.7822 6.17353C29.7196 6.15221 30.662 6.31031 31.5553 6.64992C32.4481 6.98978 33.291 7.51273 34.02 8.21138C34.7484 8.90934 35.3075 9.73013 35.6846 10.6082C36.0636 11.4864 36.2631 12.4219 36.2839 13.3606C36.3053 14.3004 36.1479 15.2448 35.8086 16.1398C35.0072 18.2556 33.1487 20.025 30.951 20.5996ZM29.0397 17.625C31.3098 17.5733 33.1085 15.6964 33.0575 13.4329C33.0065 11.1693 31.1247 9.37595 28.8546 9.4275C26.5844 9.47898 24.7858 11.356 24.8368 13.6195C24.8582 14.4871 25.1452 15.3184 25.681 16.0164C25.8396 16.2232 26.0184 16.4154 26.2136 16.5883C26.9785 17.278 28.0135 17.6468 29.0397 17.625Z" fill="#57B1FA"/>
<path d="M36.4489 37.7177L27.1202 40.9886C27.1523 40.6847 27.1744 40.3793 27.1857 40.0728C27.2084 39.4844 27.1926 38.8918 27.1372 38.2989C27.1145 38.0525 27.085 37.8073 27.0491 37.5636L40.9892 32.5707C41.1435 32.5126 41.3009 32.4592 41.4601 32.4109C42.4253 32.1188 43.413 32.0356 44.3618 32.1382C45.3111 32.2407 46.2221 32.5271 47.0474 32.9708C47.8747 33.4148 48.6169 34.0172 49.2276 34.7537C50.4917 36.2773 51.0898 38.2653 50.8776 40.236C50.7756 41.1872 50.4898 42.1 50.0472 42.9275C49.604 43.7561 49.0028 44.5002 48.2681 45.112C47.5334 45.7236 46.664 46.2016 45.6989 46.4931C44.7338 46.7852 43.7454 46.8686 42.7973 46.7656C41.848 46.6637 40.937 46.377 40.1116 45.9335C39.285 45.4892 38.5422 44.8868 37.9315 44.1505C36.4886 42.41 35.8666 39.9178 36.4489 37.7177ZM39.9738 37.5152C38.901 39.5205 39.6458 42.0136 41.637 43.0833C43.6283 44.1529 46.1125 43.3942 47.1853 41.3889C48.258 39.3835 47.5133 36.8904 45.522 35.8208C44.7577 35.4118 43.894 35.2536 43.0246 35.3768C42.7665 35.4134 42.5115 35.4749 42.2653 35.5599C41.2895 35.8879 40.4598 36.6092 39.9738 37.5152Z" fill="#FBA422"/>
<path d="M10.8949 46.3004C11.7801 46.6594 12.7181 46.8382 13.6549 46.8382C14.5929 46.8382 15.5316 46.6588 16.4167 46.2988C17.3012 45.939 18.1323 45.3971 18.8449 44.682C19.5576 43.9677 20.0977 43.1344 20.4553 42.248C20.8142 41.3615 20.9923 40.4216 20.9923 39.4827C20.9923 38.5427 20.8135 37.602 20.454 36.7151C20.0952 35.8285 19.5544 34.9952 18.8411 34.2813C18.1279 33.5672 17.2962 33.026 16.4123 32.6672C16.0648 32.5263 15.7091 32.413 15.349 32.3275L22.4548 25.7006V25.7005L22.4088 25.6784V25.6783L22.3629 25.656L22.3622 25.656L22.3169 25.6334L22.3163 25.6333L22.2709 25.6105V25.6104L22.225 25.5874V25.5873L22.1797 25.564V25.5639L22.1343 25.5404L22.1337 25.5403L22.089 25.5165L22.0884 25.5165L22.0437 25.4924L22.043 25.4924L21.9983 25.4681V25.468L21.953 25.4435V25.4434L21.9083 25.4187V25.4186L21.8636 25.3936V25.3936L21.8189 25.3683V25.3683L21.7742 25.3428V25.3427L21.7295 25.317V25.317L21.6855 25.291V25.2909L21.6407 25.2647V25.2647L21.5967 25.2382V25.2381L21.5526 25.2115V25.2114L21.5085 25.1844V25.1844L21.4651 25.1573V25.1572L21.421 25.1298V25.1297L21.3776 25.1021V25.102L21.3342 25.0742V25.0741L21.2907 25.0461V25.046L21.2473 25.0176V25.0176L21.2038 24.989V24.9889L21.161 24.9601V24.96L21.1182 24.931L21.1176 24.9309L21.0748 24.9017V24.9016L21.0326 24.8721L21.032 24.872L20.9898 24.8422V24.8422L20.947 24.8122V24.8121L20.9048 24.7818V24.7818L20.862 24.7514V24.7513L20.8198 24.7206V24.7205L20.7776 24.6897V24.6896L20.7361 24.6584V24.6584L20.6939 24.627V24.627L20.6524 24.5953V24.5952L20.6102 24.5634V24.5634L20.5686 24.5313V24.5313L20.5271 24.4989V24.4988L20.4862 24.4663L20.4855 24.4662L20.4446 24.4335V24.4334L20.4031 24.4004V24.4003L20.3621 24.3672V24.3671L20.3212 24.3337V24.3336L20.2803 24.2998V24.2998L20.2394 24.2659V24.2658L20.1991 24.2317V24.2316L20.1582 24.1973V24.1972L20.1179 24.1626V24.1626L20.0776 24.1277V24.1277L20.0373 24.0927V24.0926L19.997 24.0573V24.0572L19.9567 24.0217V24.0217L19.917 23.986V23.9859L19.8774 23.95V23.9499L19.8371 23.9137V23.9137L19.7974 23.8773V23.8772L19.7584 23.8406V23.8406L19.7187 23.8037L8.82534 33.945C8.70132 34.0538 8.58013 34.1674 8.46228 34.2857C7.7495 34.9999 7.20966 35.833 6.8517 36.7194C6.49336 37.6061 6.31494 38.546 6.31494 39.4851C6.31494 40.4249 6.49405 41.3654 6.85321 42.2526C7.59608 44.0889 9.0618 45.5565 10.8949 46.3004ZM11.2129 36.1846C11.296 36.124 11.3803 36.0658 11.4678 36.0113L11.2129 36.1846ZM13.6536 35.384C15.9244 35.384 17.7652 37.2196 17.7652 39.4838C17.7652 41.7479 15.9244 43.5835 13.6536 43.5835C11.3835 43.5835 9.54266 41.7479 9.54266 39.4838C9.54266 37.2338 11.3721 35.384 13.6536 35.384Z" fill="#A094FC"/>
<path fill-rule="evenodd" clip-rule="evenodd" d="M19.7204 23.8018C19.0833 23.2329 18.4965 22.6016 17.9709 21.9132C16.1433 19.5216 15.1668 16.6026 15.1687 13.6183C15.1687 13.1061 15.1983 12.5918 15.2569 12.0781C15.6566 8.57108 17.3986 5.35667 20.1151 3.11138C22.5578 1.09321 25.6161 0 28.7595 0C29.1127 0 29.4671 0.0138164 29.8222 0.0415757C33.3319 0.317592 36.598 1.94839 38.933 4.59051C41.1396 7.08816 42.3515 10.3055 42.3509 13.6291C42.3509 13.8215 42.3465 14.014 42.3383 14.2069C42.1885 17.7337 40.6794 21.0642 38.1285 23.4978C37.8143 23.7975 37.4114 23.9465 37.0091 23.9465C36.5804 23.9465 36.1517 23.777 35.8325 23.4406C35.5328 23.1251 35.3849 22.7205 35.3849 22.3168C35.3855 21.887 35.5542 21.4582 35.8898 21.1384C37.8307 19.2866 38.979 16.7521 39.093 14.0683C39.0992 13.9214 39.1024 13.7747 39.1024 13.6284C39.103 11.0993 38.1814 8.65076 36.5017 6.75C34.7251 4.73909 32.2397 3.49825 29.5678 3.28828C29.2978 3.26702 29.0283 3.25655 28.7595 3.25655C26.3672 3.25655 24.0397 4.08851 22.1813 5.6243C20.1139 7.33282 18.788 9.77924 18.4839 12.4482C18.4392 12.8391 18.4172 13.2303 18.4166 13.6201C18.4153 15.8913 19.1588 18.1127 20.5495 19.9327C22.1788 22.0651 24.5698 23.4804 27.2196 23.8805C28.0229 24.0018 28.6002 24.6945 28.6015 25.4851C28.6021 25.5669 28.5958 25.6498 28.5832 25.7332C28.4623 26.5401 27.7692 27.1191 26.9797 27.1192C25.7823 27.1192 23.526 26.2601 22.4564 25.6986V25.6987C21.4705 25.2288 20.5608 24.5914 19.7204 23.8018ZM27.1365 38.2993C27.1913 38.8922 27.2076 39.4848 27.185 40.0731C27.0754 42.9732 26.0423 45.7797 24.2122 48.0691C22.0113 50.8236 18.8283 52.6147 15.3349 53.0658C14.5845 53.1623 13.8322 53.1958 13.0855 53.1674C10.3564 53.0645 7.70217 52.1396 5.48313 50.4861C2.65663 48.3801 0.756137 45.2582 0.182112 41.7771C0.0319005 40.8666 -0.0245712 39.9499 0.00967645 39.0409C0.10669 36.4745 0.927564 33.9679 2.40456 31.8233C4.40445 28.9189 7.45167 26.9055 10.9041 26.2068C11.0351 26.1803 11.1648 26.1704 11.2926 26.1756C12.0235 26.2048 12.6675 26.7296 12.8186 27.4797C12.845 27.6094 12.8551 27.7385 12.8501 27.8648C12.8224 28.5988 12.298 29.2456 11.5482 29.3973C8.92035 29.929 6.60153 31.4615 5.07946 33.6716C3.95552 35.3037 3.33088 37.2118 3.25703 39.1649C3.23084 39.8566 3.27384 40.5535 3.38804 41.2464C3.82514 43.8957 5.27135 46.2715 7.42234 47.8742C9.1113 49.1322 11.1308 49.8362 13.2077 49.9145C13.7762 49.9366 14.3484 49.9107 14.92 49.8375C17.578 49.4943 20.0005 48.1309 21.6758 46.035C23.0683 44.2926 23.8547 42.1566 23.9378 39.9497C23.9548 39.5017 23.9428 39.051 23.9012 38.5999C23.7678 37.1597 23.4228 35.961 22.4048 34.5794C22.0988 34.1646 21.8231 33.7614 21.8407 33.2832C21.8546 32.928 21.9836 32.5747 22.2329 32.2842C22.5691 31.893 23.0507 31.7012 23.5285 31.7197C23.8824 31.7333 24.2349 31.8628 24.5245 32.1125C25.9725 33.6716 26.8878 35.614 27.1365 38.2993ZM37.9673 27.0751C36.9921 27.5507 35.8835 28.1663 35.0374 28.8268C34.2064 29.4781 33.4478 30.2291 32.7798 31.0695C32.5418 31.3688 32.426 31.7265 32.426 32.0817C32.4254 32.5607 32.635 33.0357 33.0379 33.3575C33.337 33.5965 33.6939 33.7123 34.049 33.7123C34.5262 33.7123 34.9996 33.5023 35.32 33.0989C36.9902 30.9981 39.4077 29.6288 42.0644 29.2797C42.5127 29.2209 42.9615 29.1918 43.4092 29.1918C45.6126 29.1918 47.7726 29.8983 49.5624 31.2269C51.7161 32.8251 53.1672 35.199 53.6098 37.8483C53.7049 38.4176 53.7514 38.9899 53.7514 39.5599C53.7521 41.6426 53.1263 43.6917 51.9358 45.4306C50.4192 47.6453 48.105 49.1833 45.4798 49.7214C44.7929 49.8621 44.0998 49.9315 43.4092 49.9315C41.4588 49.9315 39.5324 49.3782 37.8622 48.3145C35.6008 46.8738 33.9854 44.6097 33.3552 41.9985C33.1758 41.2529 32.511 40.7525 31.7782 40.7525C31.6516 40.7525 31.5232 40.7673 31.3954 40.7985C30.6532 40.9785 30.1539 41.6431 30.1527 42.3764C30.1521 42.5042 30.1672 42.6341 30.1986 42.7638C31.0259 46.1949 33.1487 49.17 36.1208 51.0627C38.3148 52.4608 40.8456 53.1882 43.4085 53.1882C44.3163 53.1882 45.2279 53.0967 46.1301 52.9119C49.58 52.2053 52.6208 50.1839 54.6139 47.2737C56.1784 44.989 57.0006 42.2959 56.9999 39.5593C56.9999 38.8103 56.9376 38.0583 56.813 37.3103C56.2312 33.829 54.325 30.7096 51.4951 28.6095C49.1425 26.8635 46.3051 25.9352 43.4092 25.9352C42.8218 25.9352 42.2313 25.9735 41.642 26.051C40.364 26.2189 39.1282 26.5663 37.9673 27.0751Z" fill="#71BA68"/>
<path fill-rule="evenodd" clip-rule="evenodd" d="M19.7204 23.8018C19.0833 23.2329 18.4965 22.6016 17.9709 21.9132C16.1433 19.5216 15.1668 16.6026 15.1687 13.6183C15.1687 13.1061 15.1983 12.5918 15.2569 12.0781C15.6566 8.57108 17.3986 5.35667 20.1151 3.11138C22.5578 1.09321 25.6161 0 28.7595 0C29.1127 0 29.4671 0.0138164 29.8222 0.0415757C33.3319 0.317592 36.598 1.94839 38.933 4.59051C41.1396 7.08816 42.3515 10.3055 42.3509 13.6291C42.3509 13.8215 42.3465 14.014 42.3383 14.2069C42.1885 17.7337 40.6794 21.0642 38.1285 23.4978C37.8143 23.7975 37.4114 23.9465 37.0091 23.9465C36.5804 23.9465 36.1517 23.777 35.8325 23.4406C35.5328 23.1251 35.3849 22.7205 35.3849 22.3168C35.3855 21.887 35.5542 21.4582 35.8898 21.1384C37.8307 19.2866 38.979 16.7521 39.093 14.0683C39.0992 13.9214 39.1024 13.7747 39.1024 13.6284C39.103 11.0993 38.1814 8.65076 36.5017 6.75C34.7251 4.73909 32.2397 3.49825 29.5678 3.28828C29.2978 3.26702 29.0283 3.25655 28.7595 3.25655C26.3672 3.25655 24.0397 4.08851 22.1813 5.6243C20.1139 7.33282 18.788 9.77924 18.4839 12.4482C18.4392 12.8391 18.4172 13.2303 18.4166 13.6201C18.4153 15.8913 19.1588 18.1127 20.5495 19.9327C22.1788 22.0651 24.5698 23.4804 27.2196 23.8805C28.0229 24.0018 28.6002 24.6945 28.6015 25.4851C28.6021 25.5669 28.5958 25.6498 28.5832 25.7332C28.4623 26.5401 27.7692 27.1191 26.9797 27.1192C25.7823 27.1192 23.526 26.2601 22.4564 25.6986V25.6987C21.4705 25.2288 20.5608 24.5914 19.7204 23.8018ZM27.1365 38.2993C27.1913 38.8922 27.2076 39.4848 27.185 40.0731C27.0754 42.9732 26.0423 45.7797 24.2122 48.0691C22.0113 50.8236 18.8283 52.6147 15.3349 53.0658C14.5845 53.1623 13.8322 53.1958 13.0855 53.1674C10.3564 53.0645 7.70217 52.1396 5.48313 50.4861C2.65663 48.3801 0.756137 45.2582 0.182112 41.7771C0.0319005 40.8666 -0.0245712 39.9499 0.00967645 39.0409C0.10669 36.4745 0.927564 33.9679 2.40456 31.8233C4.40445 28.9189 7.45167 26.9055 10.9041 26.2068C11.0351 26.1803 11.1648 26.1704 11.2926 26.1756C12.0235 26.2048 12.6675 26.7296 12.8186 27.4797C12.845 27.6094 12.8551 27.7385 12.8501 27.8648C12.8224 28.5988 12.298 29.2456 11.5482 29.3973C8.92035 29.929 6.60153 31.4615 5.07946 33.6716C3.95552 35.3037 3.33088 37.2118 3.25703 39.1649C3.23084 39.8566 3.27384 40.5535 3.38804 41.2464C3.82514 43.8957 5.27135 46.2715 7.42234 47.8742C9.1113 49.1322 11.1308 49.8362 13.2077 49.9145C13.7762 49.9366 14.3484 49.9107 14.92 49.8375C17.578 49.4943 20.0005 48.1309 21.6758 46.035C23.0683 44.2926 23.8547 42.1566 23.9378 39.9497C23.9548 39.5017 23.9428 39.051 23.9012 38.5999C23.7678 37.1597 23.4228 35.961 22.4048 34.5794C22.0988 34.1646 21.8231 33.7614 21.8407 33.2832C21.8546 32.928 21.9836 32.5747 22.2329 32.2842C22.5691 31.893 23.0507 31.7012 23.5285 31.7197C23.8824 31.7333 24.2349 31.8628 24.5245 32.1125C25.9725 33.6716 26.8878 35.614 27.1365 38.2993ZM37.9673 27.0751C36.9921 27.5507 35.8835 28.1663 35.0374 28.8268C34.2064 29.4781 33.4478 30.2291 32.7798 31.0695C32.5418 31.3688 32.426 31.7265 32.426 32.0817C32.4254 32.5607 32.635 33.0357 33.0379 33.3575C33.337 33.5965 33.6939 33.7123 34.049 33.7123C34.5262 33.7123 34.9996 33.5023 35.32 33.0989C36.9902 30.9981 39.4077 29.6288 42.0644 29.2797C42.5127 29.2209 42.9615 29.1918 43.4092 29.1918C45.6126 29.1918 47.7726 29.8983 49.5624 31.2269C51.7161 32.8251 53.1672 35.199 53.6098 37.8483C53.7049 38.4176 53.7514 38.9899 53.7514 39.5599C53.7521 41.6426 53.1263 43.6917 51.9358 45.4306C50.4192 47.6453 48.105 49.1833 45.4798 49.7214C44.7929 49.8621 44.0998 49.9315 43.4092 49.9315C41.4588 49.9315 39.5324 49.3782 37.8622 48.3145C35.6008 46.8738 33.9854 44.6097 33.3552 41.9985C33.1758 41.2529 32.511 40.7525 31.7782 40.7525C31.6516 40.7525 31.5232 40.7673 31.3954 40.7985C30.6532 40.9785 30.1539 41.6431 30.1527 42.3764C30.1521 42.5042 30.1672 42.6341 30.1986 42.7638C31.0259 46.1949 33.1487 49.17 36.1208 51.0627C38.3148 52.4608 40.8456 53.1882 43.4085 53.1882C44.3163 53.1882 45.2279 53.0967 46.1301 52.9119C49.58 52.2053 52.6208 50.1839 54.6139 47.2737C56.1784 44.989 57.0006 42.2959 56.9999 39.5593C56.9999 38.8103 56.9376 38.0583 56.813 37.3103C56.2312 33.829 54.325 30.7096 51.4951 28.6095C49.1425 26.8635 46.3051 25.9352 43.4092 25.9352C42.8218 25.9352 42.2313 25.9735 41.642 26.051C40.364 26.2189 39.1282 26.5663 37.9673 27.0751Z" fill="url(#paint0_linear_1602_6894)"/>
<path fill-rule="evenodd" clip-rule="evenodd" d="M19.7204 23.8018C19.0833 23.2329 18.4965 22.6016 17.9709 21.9132C16.1433 19.5216 15.1668 16.6026 15.1687 13.6183C15.1687 13.1061 15.1983 12.5918 15.2569 12.0781C15.6566 8.57108 17.3986 5.35667 20.1151 3.11138C22.5578 1.09321 25.6161 0 28.7595 0C29.1127 0 29.4671 0.0138164 29.8222 0.0415757C33.3319 0.317592 36.598 1.94839 38.933 4.59051C41.1396 7.08816 42.3515 10.3055 42.3509 13.6291C42.3509 13.8215 42.3465 14.014 42.3383 14.2069C42.1885 17.7337 40.6794 21.0642 38.1285 23.4978C37.8143 23.7975 37.4114 23.9465 37.0091 23.9465C36.5804 23.9465 36.1517 23.777 35.8325 23.4406C35.5328 23.1251 35.3849 22.7205 35.3849 22.3168C35.3855 21.887 35.5542 21.4582 35.8898 21.1384C37.8307 19.2866 38.979 16.7521 39.093 14.0683C39.0992 13.9214 39.1024 13.7747 39.1024 13.6284C39.103 11.0993 38.1814 8.65076 36.5017 6.75C34.7251 4.73909 32.2397 3.49825 29.5678 3.28828C29.2978 3.26702 29.0283 3.25655 28.7595 3.25655C26.3672 3.25655 24.0397 4.08851 22.1813 5.6243C20.1139 7.33282 18.788 9.77924 18.4839 12.4482C18.4392 12.8391 18.4172 13.2303 18.4166 13.6201C18.4153 15.8913 19.1588 18.1127 20.5495 19.9327C22.1788 22.0651 24.5698 23.4804 27.2196 23.8805C28.0229 24.0018 28.6002 24.6945 28.6015 25.4851C28.6021 25.5669 28.5958 25.6498 28.5832 25.7332C28.4623 26.5401 27.7692 27.1191 26.9797 27.1192C25.7823 27.1192 23.526 26.2601 22.4564 25.6986V25.6987C21.4705 25.2288 20.5608 24.5914 19.7204 23.8018ZM27.1365 38.2993C27.1913 38.8922 27.2076 39.4848 27.185 40.0731C27.0754 42.9732 26.0423 45.7797 24.2122 48.0691C22.0113 50.8236 18.8283 52.6147 15.3349 53.0658C14.5845 53.1623 13.8322 53.1958 13.0855 53.1674C10.3564 53.0645 7.70217 52.1396 5.48313 50.4861C2.65663 48.3801 0.756137 45.2582 0.182112 41.7771C0.0319005 40.8666 -0.0245712 39.9499 0.00967645 39.0409C0.10669 36.4745 0.927564 33.9679 2.40456 31.8233C4.40445 28.9189 7.45167 26.9055 10.9041 26.2068C11.0351 26.1803 11.1648 26.1704 11.2926 26.1756C12.0235 26.2048 12.6675 26.7296 12.8186 27.4797C12.845 27.6094 12.8551 27.7385 12.8501 27.8648C12.8224 28.5988 12.298 29.2456 11.5482 29.3973C8.92035 29.929 6.60153 31.4615 5.07946 33.6716C3.95552 35.3037 3.33088 37.2118 3.25703 39.1649C3.23084 39.8566 3.27384 40.5535 3.38804 41.2464C3.82514 43.8957 5.27135 46.2715 7.42234 47.8742C9.1113 49.1322 11.1308 49.8362 13.2077 49.9145C13.7762 49.9366 14.3484 49.9107 14.92 49.8375C17.578 49.4943 20.0005 48.1309 21.6758 46.035C23.0683 44.2926 23.8547 42.1566 23.9378 39.9497C23.9548 39.5017 23.9428 39.051 23.9012 38.5999C23.7678 37.1597 23.4228 35.961 22.4048 34.5794C22.0988 34.1646 21.8231 33.7614 21.8407 33.2832C21.8546 32.928 21.9836 32.5747 22.2329 32.2842C22.5691 31.893 23.0507 31.7012 23.5285 31.7197C23.8824 31.7333 24.2349 31.8628 24.5245 32.1125C25.9725 33.6716 26.8878 35.614 27.1365 38.2993ZM37.9673 27.0751C36.9921 27.5507 35.8835 28.1663 35.0374 28.8268C34.2064 29.4781 33.4478 30.2291 32.7798 31.0695C32.5418 31.3688 32.426 31.7265 32.426 32.0817C32.4254 32.5607 32.635 33.0357 33.0379 33.3575C33.337 33.5965 33.6939 33.7123 34.049 33.7123C34.5262 33.7123 34.9996 33.5023 35.32 33.0989C36.9902 30.9981 39.4077 29.6288 42.0644 29.2797C42.5127 29.2209 42.9615 29.1918 43.4092 29.1918C45.6126 29.1918 47.7726 29.8983 49.5624 31.2269C51.7161 32.8251 53.1672 35.199 53.6098 37.8483C53.7049 38.4176 53.7514 38.9899 53.7514 39.5599C53.7521 41.6426 53.1263 43.6917 51.9358 45.4306C50.4192 47.6453 48.105 49.1833 45.4798 49.7214C44.7929 49.8621 44.0998 49.9315 43.4092 49.9315C41.4588 49.9315 39.5324 49.3782 37.8622 48.3145C35.6008 46.8738 33.9854 44.6097 33.3552 41.9985C33.1758 41.2529 32.511 40.7525 31.7782 40.7525C31.6516 40.7525 31.5232 40.7673 31.3954 40.7985C30.6532 40.9785 30.1539 41.6431 30.1527 42.3764C30.1521 42.5042 30.1672 42.6341 30.1986 42.7638C31.0259 46.1949 33.1487 49.17 36.1208 51.0627C38.3148 52.4608 40.8456 53.1882 43.4085 53.1882C44.3163 53.1882 45.2279 53.0967 46.1301 52.9119C49.58 52.2053 52.6208 50.1839 54.6139 47.2737C56.1784 44.989 57.0006 42.2959 56.9999 39.5593C56.9999 38.8103 56.9376 38.0583 56.813 37.3103C56.2312 33.829 54.325 30.7096 51.4951 28.6095C49.1425 26.8635 46.3051 25.9352 43.4092 25.9352C42.8218 25.9352 42.2313 25.9735 41.642 26.051C40.364 26.2189 39.1282 26.5663 37.9673 27.0751Z" fill="#00FFFF" fill-opacity="0.2"/>
<defs>
<linearGradient id="paint0_linear_1602_6894" x1="57.0232" y1="15.623" x2="31.0881" y2="71.459" gradientUnits="userSpaceOnUse">
<stop stop-color="#74C83F"/>
<stop offset="0.567708" stop-color="#1F9164"/>
<stop offset="1" stop-color="#006C63"/>
</linearGradient>
</defs>
</svg>
